{
	"asset":{
		"generator":"Khronos glTF Blender I/O v5.0.21",
		"version":"2.0"
	},
	"scene":0,
	"scenes":[
		{
			"name":"Scene",
			"nodes":[
				0
			]
		}
	],
	"nodes":[
		{
			"mesh":0,
			"name":"RedChipStack",
			"rotation":[
				0,
				0,
				0.7071068286895752,
				0.7071067094802856
			]
		}
	],
	"materials":[
		{
			"doubleSided":true,
			"name":"YellowChips"
		}
	],
	"meshes":[
		{
			"name":"RedChip8_RedChips_0",
			"primitives":[
				{
					"attributes":{
						"POSITION":0,
						"NORMAL":1,
						"TEXCOORD_0":2,
						"TEXCOORD_1":3
					},
					"indices":4,
					"material":0
				}
			]
		}
	],
	"accessors":[
		{
			"bufferView":0,
			"componentType":5126,
			"count":244,
			"max":[
				0.46157532930374146,
				0.1754041612148285,
				0.43898484110832214
			],
			"min":[
				-0.4615754187107086,
				-0.16803185641765594,
				-0.4389841854572296
			],
			"type":"VEC3"
		},
		{
			"bufferView":1,
			"componentType":5126,
			"count":244,
			"type":"VEC3"
		},
		{
			"bufferView":2,
			"componentType":5126,
			"count":244,
			"type":"VEC2"
		},
		{
			"bufferView":3,
			"componentType":5126,
			"count":244,
			"type":"VEC2"
		},
		{
			"bufferView":4,
			"componentType":5123,
			"count":1308,
			"type":"SCALAR"
		}
	],
	"bufferViews":[
		{
			"buffer":0,
			"byteLength":2928,
			"byteOffset":0,
			"target":34962
		},
		{
			"buffer":0,
			"byteLength":2928,
			"byteOffset":2928,
			"target":34962
		},
		{
			"buffer":0,
			"byteLength":1952,
			"byteOffset":5856,
			"target":34962
		},
		{
			"buffer":0,
			"byteLength":1952,
			"byteOffset":7808,
			"target":34962
		},
		{
			"buffer":0,
			"byteLength":2616,
			"byteOffset":9760,
			"target":34963
		}
	],
	"buffers":[
		{
			"byteLength":12376,
			"uri":"Chip_Yellow.bin"
		}
	]
}
