{
	"asset":{
		"generator":"Khronos glTF Blender I/O v5.0.21",
		"version":"2.0"
	},
	"extensionsUsed":[
		"KHR_materials_specular"
	],
	"scene":0,
	"scenes":[
		{
			"name":"Scene",
			"nodes":[
				0,
				1,
				2,
				3,
				4,
				5,
				6,
				7,
				8,
				9,
				10,
				11,
				12,
				13,
				14,
				15,
				16,
				17,
				18,
				19,
				20,
				21,
				22,
				23,
				24,
				25,
				26,
				27,
				28,
				29,
				30,
				31,
				32,
				33,
				34,
				35,
				36,
				37,
				38,
				39,
				40,
				41,
				42,
				43,
				44
			]
		}
	],
	"nodes":[
		{
			"mesh":0,
			"name":"Material2"
		},
		{
			"mesh":1,
			"name":"Material2.001"
		},
		{
			"name":"Material4"
		},
		{
			"name":"Material2.002"
		},
		{
			"mesh":2,
			"name":"Material2.003"
		},
		{
			"mesh":3,
			"name":"Material3"
		},
		{
			"mesh":4,
			"name":"Material3.001"
		},
		{
			"mesh":5,
			"name":"Material3.002"
		},
		{
			"mesh":6,
			"name":"Material3.003"
		},
		{
			"mesh":7,
			"name":"Material3.004"
		},
		{
			"mesh":8,
			"name":"Material3.005"
		},
		{
			"mesh":9,
			"name":"Material3.006"
		},
		{
			"mesh":10,
			"name":"Material3.007"
		},
		{
			"mesh":11,
			"name":"Material3.008"
		},
		{
			"mesh":12,
			"name":"Material3.009"
		},
		{
			"mesh":13,
			"name":"Material3.010"
		},
		{
			"mesh":14,
			"name":"Material3.011"
		},
		{
			"mesh":15,
			"name":"Material3.012"
		},
		{
			"mesh":16,
			"name":"Material3.013"
		},
		{
			"mesh":17,
			"name":"Material3.014"
		},
		{
			"mesh":18,
			"name":"Material3.015"
		},
		{
			"mesh":19,
			"name":"Material3.016"
		},
		{
			"mesh":20,
			"name":"Material3.017"
		},
		{
			"mesh":21,
			"name":"Material3.018"
		},
		{
			"mesh":22,
			"name":"Material3.019"
		},
		{
			"mesh":23,
			"name":"Material3.020"
		},
		{
			"mesh":24,
			"name":"Material3.021"
		},
		{
			"mesh":25,
			"name":"Material3.022"
		},
		{
			"mesh":26,
			"name":"Material3.023"
		},
		{
			"mesh":27,
			"name":"Material3.024"
		},
		{
			"mesh":28,
			"name":"Material3.025"
		},
		{
			"mesh":29,
			"name":"Material3.026"
		},
		{
			"mesh":30,
			"name":"Material3.027"
		},
		{
			"mesh":31,
			"name":"Material3.028"
		},
		{
			"mesh":32,
			"name":"Material3.029"
		},
		{
			"mesh":33,
			"name":"Material3.030"
		},
		{
			"mesh":34,
			"name":"Material3.031"
		},
		{
			"mesh":35,
			"name":"Material3.032"
		},
		{
			"mesh":36,
			"name":"Material3.033"
		},
		{
			"mesh":37,
			"name":"Material3.034"
		},
		{
			"mesh":38,
			"name":"Material3.035"
		},
		{
			"mesh":39,
			"name":"Material3.036"
		},
		{
			"mesh":40,
			"name":"Material3.037"
		},
		{
			"mesh":41,
			"name":"Material3.038"
		},
		{
			"mesh":42,
			"name":"Material3.039"
		}
	],
	"materials":[
		{
			"name":"material_1",
			"pbrMetallicRoughness":{
				"baseColorTexture":{
					"index":0
				},
				"metallicFactor":0,
				"roughnessFactor":0.7204545736312866
			}
		},
		{
			"extensions":{
				"KHR_materials_specular":{
					"specularTexture":{
						"index":1
					}
				}
			},
			"name":"auto",
			"pbrMetallicRoughness":{
				"baseColorTexture":{
					"index":2
				},
				"metallicFactor":0,
				"roughnessFactor":0.6000000238418579
			}
		},
		{
			"extensions":{
				"KHR_materials_specular":{
					"specularTexture":{
						"index":3
					}
				}
			},
			"name":"auto_1",
			"pbrMetallicRoughness":{
				"baseColorTexture":{
					"index":4
				},
				"metallicFactor":0,
				"roughnessFactor":0.03343023359775543
			}
		},
		{
			"extensions":{
				"KHR_materials_specular":{
					"specularTexture":{
						"index":5
					}
				}
			},
			"name":"auto_2",
			"pbrMetallicRoughness":{
				"baseColorTexture":{
					"index":6
				},
				"metallicFactor":0,
				"roughnessFactor":0
			}
		},
		{
			"extensions":{
				"KHR_materials_specular":{
					"specularTexture":{
						"index":7
					}
				}
			},
			"name":"auto_3",
			"pbrMetallicRoughness":{
				"baseColorTexture":{
					"index":8
				},
				"metallicFactor":0.213662788271904,
				"roughnessFactor":0
			}
		},
		{
			"name":"auto_6",
			"pbrMetallicRoughness":{
				"baseColorTexture":{
					"index":9
				},
				"metallicFactor":0,
				"roughnessFactor":0.6000000238418579
			}
		},
		{
			"extensions":{
				"KHR_materials_specular":{
					"specularTexture":{
						"index":10
					}
				}
			},
			"name":"auto_4",
			"pbrMetallicRoughness":{
				"baseColorTexture":{
					"index":11
				},
				"metallicFactor":0,
				"roughnessFactor":0.6000000238418579
			}
		},
		{
			"name":"auto_5",
			"pbrMetallicRoughness":{
				"baseColorFactor":[
					0.6904069781303406,
					0.6904069781303406,
					0.6904069781303406,
					1
				],
				"baseColorTexture":{
					"index":12
				},
				"metallicFactor":0,
				"roughnessFactor":0
			}
		},
		{
			"name":"auto_7",
			"pbrMetallicRoughness":{
				"baseColorTexture":{
					"index":13
				},
				"metallicFactor":0,
				"roughnessFactor":0
			}
		},
		{
			"name":"auto_8",
			"pbrMetallicRoughness":{
				"baseColorTexture":{
					"index":14
				},
				"metallicFactor":0,
				"roughnessFactor":0.6000000238418579
			}
		},
		{
			"name":"auto_9",
			"pbrMetallicRoughness":{
				"baseColorTexture":{
					"index":15
				},
				"metallicFactor":0,
				"roughnessFactor":0.6000000238418579
			}
		},
		{
			"name":"auto_11",
			"pbrMetallicRoughness":{
				"baseColorTexture":{
					"index":16
				},
				"metallicFactor":0,
				"roughnessFactor":0
			}
		},
		{
			"alphaMode":"BLEND",
			"extensions":{
				"KHR_materials_specular":{
					"specularTexture":{
						"index":17
					}
				}
			},
			"name":"auto_10",
			"pbrMetallicRoughness":{
				"baseColorTexture":{
					"index":18
				},
				"metallicFactor":0,
				"roughnessFactor":0.6000000238418579
			}
		},
		{
			"name":"auto_12",
			"pbrMetallicRoughness":{
				"baseColorTexture":{
					"index":19
				},
				"metallicFactor":0,
				"roughnessFactor":0.6000000238418579
			}
		},
		{
			"name":"auto_14",
			"pbrMetallicRoughness":{
				"baseColorTexture":{
					"index":20
				},
				"metallicFactor":0,
				"roughnessFactor":0.6000000238418579
			}
		},
		{
			"name":"auto_16",
			"pbrMetallicRoughness":{
				"baseColorTexture":{
					"index":21
				},
				"metallicFactor":0,
				"roughnessFactor":0
			}
		},
		{
			"alphaMode":"BLEND",
			"name":"auto_18",
			"pbrMetallicRoughness":{
				"baseColorTexture":{
					"index":22
				},
				"metallicFactor":0,
				"roughnessFactor":0.6000000238418579
			}
		},
		{
			"alphaMode":"BLEND",
			"extensions":{
				"KHR_materials_specular":{
					"specularTexture":{
						"index":23
					}
				}
			},
			"name":"auto_20",
			"pbrMetallicRoughness":{
				"baseColorTexture":{
					"index":24
				},
				"metallicFactor":0,
				"roughnessFactor":0.6000000238418579
			}
		},
		{
			"name":"auto_23",
			"pbrMetallicRoughness":{
				"baseColorTexture":{
					"index":25
				},
				"metallicFactor":0,
				"roughnessFactor":0.6000000238418579
			}
		},
		{
			"name":"auto_22",
			"pbrMetallicRoughness":{
				"baseColorTexture":{
					"index":26
				},
				"metallicFactor":0,
				"roughnessFactor":0.6000000238418579
			}
		},
		{
			"alphaMode":"BLEND",
			"name":"auto_24",
			"pbrMetallicRoughness":{
				"baseColorTexture":{
					"index":27
				},
				"metallicFactor":0,
				"roughnessFactor":0.6000000238418579
			}
		},
		{
			"name":"auto_25",
			"pbrMetallicRoughness":{
				"baseColorTexture":{
					"index":28
				},
				"metallicFactor":0,
				"roughnessFactor":0
			}
		},
		{
			"name":"auto_27",
			"pbrMetallicRoughness":{
				"baseColorTexture":{
					"index":29
				},
				"metallicFactor":0,
				"roughnessFactor":0.6000000238418579
			}
		},
		{
			"alphaMode":"BLEND",
			"name":"auto_28",
			"pbrMetallicRoughness":{
				"baseColorTexture":{
					"index":30
				},
				"metallicFactor":0,
				"roughnessFactor":0.6000000238418579
			}
		},
		{
			"alphaMode":"BLEND",
			"name":"auto_29",
			"pbrMetallicRoughness":{
				"baseColorTexture":{
					"index":31
				},
				"metallicFactor":0,
				"roughnessFactor":0.6000000238418579
			}
		},
		{
			"extensions":{
				"KHR_materials_specular":{
					"specularTexture":{
						"index":32
					}
				}
			},
			"name":"auto_30",
			"pbrMetallicRoughness":{
				"baseColorTexture":{
					"index":33
				},
				"metallicFactor":0,
				"roughnessFactor":0.6000000238418579
			}
		},
		{
			"name":"auto_33",
			"pbrMetallicRoughness":{
				"baseColorTexture":{
					"index":34
				},
				"metallicFactor":0,
				"roughnessFactor":0
			}
		},
		{
			"name":"auto_34",
			"pbrMetallicRoughness":{
				"baseColorTexture":{
					"index":35
				},
				"metallicFactor":0.28343021869659424,
				"roughnessFactor":0
			}
		},
		{
			"name":"auto_35",
			"pbrMetallicRoughness":{
				"baseColorTexture":{
					"index":36
				},
				"metallicFactor":0
			}
		},
		{
			"name":"auto_38",
			"pbrMetallicRoughness":{
				"baseColorTexture":{
					"index":37
				},
				"metallicFactor":0,
				"roughnessFactor":0.6000000238418579
			}
		},
		{
			"alphaMode":"BLEND",
			"name":"auto_37",
			"pbrMetallicRoughness":{
				"baseColorTexture":{
					"index":38
				},
				"metallicFactor":0
			}
		},
		{
			"name":"auto_39",
			"pbrMetallicRoughness":{
				"baseColorTexture":{
					"index":39
				},
				"metallicFactor":0,
				"roughnessFactor":0.6000000238418579
			}
		},
		{
			"alphaMode":"BLEND",
			"extensions":{
				"KHR_materials_specular":{
					"specularTexture":{
						"index":40
					}
				}
			},
			"name":"auto_40",
			"pbrMetallicRoughness":{
				"baseColorTexture":{
					"index":41
				},
				"metallicFactor":0,
				"roughnessFactor":0.6000000238418579
			}
		},
		{
			"name":"auto_41",
			"pbrMetallicRoughness":{
				"baseColorTexture":{
					"index":42
				},
				"metallicFactor":0,
				"roughnessFactor":0.6000000238418579
			}
		},
		{
			"name":"auto_43",
			"pbrMetallicRoughness":{
				"baseColorTexture":{
					"index":43
				},
				"metallicFactor":0,
				"roughnessFactor":0
			}
		},
		{
			"name":"auto_45",
			"pbrMetallicRoughness":{
				"baseColorTexture":{
					"index":44
				},
				"metallicFactor":0,
				"roughnessFactor":0.6000000238418579
			}
		},
		{
			"alphaMode":"BLEND",
			"name":"auto_47",
			"pbrMetallicRoughness":{
				"baseColorTexture":{
					"index":45
				},
				"metallicFactor":0,
				"roughnessFactor":0
			}
		},
		{
			"name":"auto_48",
			"pbrMetallicRoughness":{
				"baseColorTexture":{
					"index":46
				},
				"metallicFactor":0,
				"roughnessFactor":0.6000000238418579
			}
		},
		{
			"name":"auto_49",
			"pbrMetallicRoughness":{
				"baseColorTexture":{
					"index":47
				},
				"metallicFactor":0,
				"roughnessFactor":0.6000000238418579
			}
		},
		{
			"name":"auto_51",
			"pbrMetallicRoughness":{
				"baseColorTexture":{
					"index":48
				},
				"metallicFactor":0,
				"roughnessFactor":0.6000000238418579
			}
		},
		{
			"name":"auto_54",
			"pbrMetallicRoughness":{
				"baseColorTexture":{
					"index":49
				},
				"metallicFactor":0,
				"roughnessFactor":0.6000000238418579
			}
		},
		{
			"alphaMode":"BLEND",
			"name":"auto_55",
			"pbrMetallicRoughness":{
				"baseColorTexture":{
					"index":50
				},
				"metallicFactor":0,
				"roughnessFactor":0
			}
		}
	],
	"meshes":[
		{
			"name":"Material2",
			"primitives":[
				{
					"attributes":{
						"POSITION":0,
						"NORMAL":1,
						"TEXCOORD_0":2,
						"TEXCOORD_1":3
					},
					"indices":4,
					"material":0
				}
			]
		},
		{
			"name":"Material2.001",
			"primitives":[
				{
					"attributes":{
						"POSITION":5,
						"NORMAL":6,
						"TEXCOORD_0":7,
						"TEXCOORD_1":8
					},
					"indices":9,
					"material":0
				}
			]
		},
		{
			"name":"Material2.003",
			"primitives":[
				{
					"attributes":{
						"POSITION":10,
						"NORMAL":11,
						"TEXCOORD_0":12
					},
					"indices":13,
					"material":1
				}
			]
		},
		{
			"name":"Material3",
			"primitives":[
				{
					"attributes":{
						"POSITION":14,
						"NORMAL":15,
						"TEXCOORD_0":16
					},
					"indices":17,
					"material":2
				}
			]
		},
		{
			"name":"Material3.001",
			"primitives":[
				{
					"attributes":{
						"POSITION":18,
						"NORMAL":19,
						"TEXCOORD_0":20
					},
					"indices":21,
					"material":3
				}
			]
		},
		{
			"name":"Material3.002",
			"primitives":[
				{
					"attributes":{
						"POSITION":22,
						"NORMAL":23,
						"TEXCOORD_0":24
					},
					"indices":25,
					"material":4
				}
			]
		},
		{
			"name":"Material3.003",
			"primitives":[
				{
					"attributes":{
						"POSITION":26,
						"NORMAL":27,
						"TEXCOORD_0":28
					},
					"indices":29,
					"material":5
				}
			]
		},
		{
			"name":"Material3.004",
			"primitives":[
				{
					"attributes":{
						"POSITION":30,
						"NORMAL":31,
						"TEXCOORD_0":32
					},
					"indices":33,
					"material":6
				}
			]
		},
		{
			"name":"Material3.005",
			"primitives":[
				{
					"attributes":{
						"POSITION":34,
						"NORMAL":35,
						"TEXCOORD_0":36
					},
					"indices":37,
					"material":7
				}
			]
		},
		{
			"name":"Material3.006",
			"primitives":[
				{
					"attributes":{
						"POSITION":38,
						"NORMAL":39,
						"TEXCOORD_0":40
					},
					"indices":41,
					"material":8
				}
			]
		},
		{
			"name":"Material3.007",
			"primitives":[
				{
					"attributes":{
						"POSITION":42,
						"NORMAL":43,
						"TEXCOORD_0":44
					},
					"indices":45,
					"material":9
				}
			]
		},
		{
			"name":"Material3.008",
			"primitives":[
				{
					"attributes":{
						"POSITION":46,
						"NORMAL":47,
						"TEXCOORD_0":48
					},
					"indices":49,
					"material":10
				}
			]
		},
		{
			"name":"Material3.009",
			"primitives":[
				{
					"attributes":{
						"POSITION":50,
						"NORMAL":51,
						"TEXCOORD_0":52
					},
					"indices":53,
					"material":11
				}
			]
		},
		{
			"name":"Material3.010",
			"primitives":[
				{
					"attributes":{
						"POSITION":54,
						"NORMAL":55,
						"TEXCOORD_0":56,
						"TEXCOORD_1":57
					},
					"indices":58,
					"material":12
				}
			]
		},
		{
			"name":"Material3.011",
			"primitives":[
				{
					"attributes":{
						"POSITION":59,
						"NORMAL":60,
						"TEXCOORD_0":61
					},
					"indices":62,
					"material":13
				}
			]
		},
		{
			"name":"Material3.012",
			"primitives":[
				{
					"attributes":{
						"POSITION":63,
						"NORMAL":64,
						"TEXCOORD_0":65
					},
					"indices":66,
					"material":14
				}
			]
		},
		{
			"name":"Material3.013",
			"primitives":[
				{
					"attributes":{
						"POSITION":67,
						"NORMAL":68,
						"TEXCOORD_0":69
					},
					"indices":70,
					"material":15
				}
			]
		},
		{
			"name":"Material3.014",
			"primitives":[
				{
					"attributes":{
						"POSITION":71,
						"NORMAL":72,
						"TEXCOORD_0":73,
						"TEXCOORD_1":74
					},
					"indices":75,
					"material":16
				}
			]
		},
		{
			"name":"Material3.015",
			"primitives":[
				{
					"attributes":{
						"POSITION":76,
						"NORMAL":77,
						"TEXCOORD_0":78,
						"TEXCOORD_1":79
					},
					"indices":80,
					"material":17
				}
			]
		},
		{
			"name":"Material3.016",
			"primitives":[
				{
					"attributes":{
						"POSITION":81,
						"NORMAL":82,
						"TEXCOORD_0":83
					},
					"indices":84,
					"material":18
				}
			]
		},
		{
			"name":"Material3.017",
			"primitives":[
				{
					"attributes":{
						"POSITION":85,
						"NORMAL":86,
						"TEXCOORD_0":87
					},
					"indices":88,
					"material":19
				}
			]
		},
		{
			"name":"Material3.018",
			"primitives":[
				{
					"attributes":{
						"POSITION":89,
						"NORMAL":90,
						"TEXCOORD_0":91,
						"TEXCOORD_1":92
					},
					"indices":93,
					"material":20
				}
			]
		},
		{
			"name":"Material3.019",
			"primitives":[
				{
					"attributes":{
						"POSITION":94,
						"NORMAL":95,
						"TEXCOORD_0":96
					},
					"indices":97,
					"material":21
				}
			]
		},
		{
			"name":"Material3.020",
			"primitives":[
				{
					"attributes":{
						"POSITION":98,
						"NORMAL":99,
						"TEXCOORD_0":100
					},
					"indices":101,
					"material":22
				}
			]
		},
		{
			"name":"Material3.021",
			"primitives":[
				{
					"attributes":{
						"POSITION":102,
						"NORMAL":103,
						"TEXCOORD_0":104,
						"TEXCOORD_1":105
					},
					"indices":75,
					"material":23
				}
			]
		},
		{
			"name":"Material3.022",
			"primitives":[
				{
					"attributes":{
						"POSITION":106,
						"NORMAL":107,
						"TEXCOORD_0":108,
						"TEXCOORD_1":109
					},
					"indices":110,
					"material":24
				}
			]
		},
		{
			"name":"Material3.023",
			"primitives":[
				{
					"attributes":{
						"POSITION":111,
						"NORMAL":112,
						"TEXCOORD_0":113
					},
					"indices":114,
					"material":25
				}
			]
		},
		{
			"name":"Material3.024",
			"primitives":[
				{
					"attributes":{
						"POSITION":115,
						"NORMAL":116,
						"TEXCOORD_0":117
					},
					"indices":118,
					"material":26
				}
			]
		},
		{
			"name":"Material3.025",
			"primitives":[
				{
					"attributes":{
						"POSITION":119,
						"NORMAL":120,
						"TEXCOORD_0":121
					},
					"indices":122,
					"material":27
				}
			]
		},
		{
			"name":"Material3.026",
			"primitives":[
				{
					"attributes":{
						"POSITION":123,
						"NORMAL":124,
						"TEXCOORD_0":125
					},
					"indices":126,
					"material":28
				}
			]
		},
		{
			"name":"Material3.027",
			"primitives":[
				{
					"attributes":{
						"POSITION":127,
						"NORMAL":128,
						"TEXCOORD_0":129
					},
					"indices":130,
					"material":29
				}
			]
		},
		{
			"name":"Material3.028",
			"primitives":[
				{
					"attributes":{
						"POSITION":131,
						"NORMAL":132,
						"TEXCOORD_0":133,
						"TEXCOORD_1":134
					},
					"indices":135,
					"material":30
				}
			]
		},
		{
			"name":"Material3.029",
			"primitives":[
				{
					"attributes":{
						"POSITION":136,
						"NORMAL":137,
						"TEXCOORD_0":138
					},
					"indices":139,
					"material":31
				}
			]
		},
		{
			"name":"Material3.030",
			"primitives":[
				{
					"attributes":{
						"POSITION":140,
						"NORMAL":141,
						"TEXCOORD_0":142,
						"TEXCOORD_1":143
					},
					"indices":144,
					"material":32
				}
			]
		},
		{
			"name":"Material3.031",
			"primitives":[
				{
					"attributes":{
						"POSITION":145,
						"NORMAL":146,
						"TEXCOORD_0":147
					},
					"indices":148,
					"material":33
				}
			]
		},
		{
			"name":"Material3.032",
			"primitives":[
				{
					"attributes":{
						"POSITION":149,
						"NORMAL":150,
						"TEXCOORD_0":151
					},
					"indices":152,
					"material":34
				}
			]
		},
		{
			"name":"Material3.033",
			"primitives":[
				{
					"attributes":{
						"POSITION":153,
						"NORMAL":154,
						"TEXCOORD_0":155
					},
					"indices":156,
					"material":35
				}
			]
		},
		{
			"name":"Material3.034",
			"primitives":[
				{
					"attributes":{
						"POSITION":157,
						"NORMAL":158,
						"TEXCOORD_0":159,
						"TEXCOORD_1":160
					},
					"indices":161,
					"material":36
				}
			]
		},
		{
			"name":"Material3.035",
			"primitives":[
				{
					"attributes":{
						"POSITION":162,
						"NORMAL":163,
						"TEXCOORD_0":164
					},
					"indices":165,
					"material":37
				}
			]
		},
		{
			"name":"Material3.036",
			"primitives":[
				{
					"attributes":{
						"POSITION":166,
						"NORMAL":167,
						"TEXCOORD_0":168
					},
					"indices":169,
					"material":38
				}
			]
		},
		{
			"name":"Material3.037",
			"primitives":[
				{
					"attributes":{
						"POSITION":170,
						"NORMAL":171,
						"TEXCOORD_0":172
					},
					"indices":173,
					"material":39
				}
			]
		},
		{
			"name":"Material3.038",
			"primitives":[
				{
					"attributes":{
						"POSITION":174,
						"NORMAL":175,
						"TEXCOORD_0":176
					},
					"indices":177,
					"material":40
				}
			]
		},
		{
			"name":"Material3.039",
			"primitives":[
				{
					"attributes":{
						"POSITION":178,
						"NORMAL":179,
						"TEXCOORD_0":180,
						"TEXCOORD_1":181
					},
					"indices":182,
					"material":41
				}
			]
		}
	],
	"textures":[
		{
			"sampler":0,
			"source":0
		},
		{
			"sampler":0,
			"source":1
		},
		{
			"sampler":0,
			"source":2
		},
		{
			"sampler":0,
			"source":3
		},
		{
			"sampler":0,
			"source":4
		},
		{
			"sampler":0,
			"source":5
		},
		{
			"sampler":0,
			"source":6
		},
		{
			"sampler":0,
			"source":7
		},
		{
			"sampler":0,
			"source":8
		},
		{
			"sampler":0,
			"source":9
		},
		{
			"sampler":0,
			"source":1
		},
		{
			"sampler":0,
			"source":10
		},
		{
			"sampler":0,
			"source":11
		},
		{
			"sampler":0,
			"source":12
		},
		{
			"sampler":0,
			"source":13
		},
		{
			"sampler":0,
			"source":14
		},
		{
			"sampler":0,
			"source":15
		},
		{
			"sampler":0,
			"source":3
		},
		{
			"sampler":0,
			"source":16
		},
		{
			"sampler":0,
			"source":17
		},
		{
			"sampler":0,
			"source":18
		},
		{
			"sampler":0,
			"source":19
		},
		{
			"sampler":0,
			"source":20
		},
		{
			"sampler":0,
			"source":5
		},
		{
			"sampler":0,
			"source":21
		},
		{
			"sampler":0,
			"source":22
		},
		{
			"sampler":0,
			"source":23
		},
		{
			"sampler":0,
			"source":24
		},
		{
			"sampler":0,
			"source":25
		},
		{
			"sampler":0,
			"source":26
		},
		{
			"sampler":0,
			"source":27
		},
		{
			"sampler":0,
			"source":28
		},
		{
			"sampler":0,
			"source":7
		},
		{
			"sampler":0,
			"source":29
		},
		{
			"sampler":0,
			"source":30
		},
		{
			"sampler":0,
			"source":31
		},
		{
			"sampler":0,
			"source":32
		},
		{
			"sampler":0,
			"source":33
		},
		{
			"sampler":0,
			"source":34
		},
		{
			"sampler":0,
			"source":35
		},
		{
			"sampler":0,
			"source":1
		},
		{
			"sampler":0,
			"source":36
		},
		{
			"sampler":0,
			"source":37
		},
		{
			"sampler":0,
			"source":38
		},
		{
			"sampler":0,
			"source":39
		},
		{
			"sampler":0,
			"source":40
		},
		{
			"sampler":0,
			"source":41
		},
		{
			"sampler":0,
			"source":42
		},
		{
			"sampler":0,
			"source":43
		},
		{
			"sampler":0,
			"source":44
		},
		{
			"sampler":0,
			"source":45
		}
	],
	"images":[
		{
			"mimeType":"image/png",
			"name":"material_1_baseColor",
			"uri":"textures/material_1_baseColor.png"
		},
		{
			"mimeType":"image/png",
			"name":"auto_specularf0",
			"uri":"textures/auto_specularf0.png"
		},
		{
			"mimeType":"image/png",
			"name":"auto_baseColor",
			"uri":"textures/auto_baseColor.png"
		},
		{
			"mimeType":"image/png",
			"name":"auto_1_specularf0",
			"uri":"textures/auto_1_specularf0.png"
		},
		{
			"mimeType":"image/png",
			"name":"auto_1_baseColor",
			"uri":"textures/auto_1_baseColor.png"
		},
		{
			"mimeType":"image/png",
			"name":"auto_2_specularf0",
			"uri":"textures/auto_2_specularf0.png"
		},
		{
			"mimeType":"image/png",
			"name":"auto_2_baseColor",
			"uri":"textures/auto_2_baseColor.png"
		},
		{
			"mimeType":"image/png",
			"name":"auto_3_specularf0",
			"uri":"textures/auto_3_specularf0.png"
		},
		{
			"mimeType":"image/png",
			"name":"auto_3_baseColor",
			"uri":"textures/auto_3_baseColor.png"
		},
		{
			"mimeType":"image/png",
			"name":"auto_6_baseColor",
			"uri":"textures/auto_6_baseColor.png"
		},
		{
			"mimeType":"image/png",
			"name":"auto_4_baseColor",
			"uri":"textures/auto_4_baseColor.png"
		},
		{
			"mimeType":"image/png",
			"name":"auto_5_baseColor",
			"uri":"textures/auto_5_baseColor.png"
		},
		{
			"mimeType":"image/png",
			"name":"auto_7_baseColor",
			"uri":"textures/auto_7_baseColor.png"
		},
		{
			"mimeType":"image/png",
			"name":"auto_8_baseColor",
			"uri":"textures/auto_8_baseColor.png"
		},
		{
			"mimeType":"image/png",
			"name":"auto_9_baseColor",
			"uri":"textures/auto_9_baseColor.png"
		},
		{
			"mimeType":"image/png",
			"name":"auto_11_baseColor",
			"uri":"textures/auto_11_baseColor.png"
		},
		{
			"mimeType":"image/png",
			"name":"auto_10_baseColor",
			"uri":"textures/auto_10_baseColor.png"
		},
		{
			"mimeType":"image/png",
			"name":"auto_12_baseColor",
			"uri":"textures/auto_12_baseColor.png"
		},
		{
			"mimeType":"image/png",
			"name":"auto_14_baseColor",
			"uri":"textures/auto_14_baseColor.png"
		},
		{
			"mimeType":"image/png",
			"name":"auto_16_baseColor",
			"uri":"textures/auto_16_baseColor.png"
		},
		{
			"mimeType":"image/png",
			"name":"auto_18_baseColor",
			"uri":"textures/auto_18_baseColor.png"
		},
		{
			"mimeType":"image/png",
			"name":"auto_20_baseColor",
			"uri":"textures/auto_20_baseColor.png"
		},
		{
			"mimeType":"image/png",
			"name":"auto_23_baseColor",
			"uri":"textures/auto_23_baseColor.png"
		},
		{
			"mimeType":"image/png",
			"name":"auto_22_baseColor",
			"uri":"textures/auto_22_baseColor.png"
		},
		{
			"mimeType":"image/png",
			"name":"auto_24_baseColor",
			"uri":"textures/auto_24_baseColor.png"
		},
		{
			"mimeType":"image/png",
			"name":"auto_25_baseColor",
			"uri":"textures/auto_25_baseColor.png"
		},
		{
			"mimeType":"image/png",
			"name":"auto_27_baseColor",
			"uri":"textures/auto_27_baseColor.png"
		},
		{
			"mimeType":"image/png",
			"name":"auto_28_baseColor",
			"uri":"textures/auto_28_baseColor.png"
		},
		{
			"mimeType":"image/png",
			"name":"auto_29_baseColor",
			"uri":"textures/auto_29_baseColor.png"
		},
		{
			"mimeType":"image/png",
			"name":"auto_30_baseColor",
			"uri":"textures/auto_30_baseColor.png"
		},
		{
			"mimeType":"image/png",
			"name":"auto_33_baseColor",
			"uri":"textures/auto_33_baseColor.png"
		},
		{
			"mimeType":"image/png",
			"name":"auto_34_baseColor",
			"uri":"textures/auto_34_baseColor.png"
		},
		{
			"mimeType":"image/png",
			"name":"auto_35_baseColor",
			"uri":"textures/auto_35_baseColor.png"
		},
		{
			"mimeType":"image/png",
			"name":"auto_38_baseColor",
			"uri":"textures/auto_38_baseColor.png"
		},
		{
			"mimeType":"image/png",
			"name":"auto_37_baseColor",
			"uri":"textures/auto_37_baseColor.png"
		},
		{
			"mimeType":"image/png",
			"name":"auto_39_baseColor",
			"uri":"textures/auto_39_baseColor.png"
		},
		{
			"mimeType":"image/png",
			"name":"auto_40_baseColor",
			"uri":"textures/auto_40_baseColor.png"
		},
		{
			"mimeType":"image/png",
			"name":"auto_41_baseColor",
			"uri":"textures/auto_41_baseColor.png"
		},
		{
			"mimeType":"image/png",
			"name":"auto_43_baseColor",
			"uri":"textures/auto_43_baseColor.png"
		},
		{
			"mimeType":"image/png",
			"name":"auto_45_baseColor",
			"uri":"textures/auto_45_baseColor.png"
		},
		{
			"mimeType":"image/png",
			"name":"auto_47_baseColor",
			"uri":"textures/auto_47_baseColor.png"
		},
		{
			"mimeType":"image/png",
			"name":"auto_48_baseColor",
			"uri":"textures/auto_48_baseColor.png"
		},
		{
			"mimeType":"image/png",
			"name":"auto_49_baseColor",
			"uri":"textures/auto_49_baseColor.png"
		},
		{
			"mimeType":"image/png",
			"name":"auto_51_baseColor",
			"uri":"textures/auto_51_baseColor.png"
		},
		{
			"mimeType":"image/png",
			"name":"auto_54_baseColor",
			"uri":"textures/auto_54_baseColor.png"
		},
		{
			"mimeType":"image/png",
			"name":"auto_55_baseColor",
			"uri":"textures/auto_55_baseColor.png"
		}
	],
	"accessors":[
		{
			"bufferView":0,
			"componentType":5126,
			"count":66250,
			"max":[
				3.7372937202453613,
				1.490562081336975,
				2.571755886077881
			],
			"min":[
				-3.611795663833618,
				-0.06347538530826569,
				-3.1659274101257324
			],
			"type":"VEC3"
		},
		{
			"bufferView":1,
			"componentType":5126,
			"count":66250,
			"type":"VEC3"
		},
		{
			"bufferView":2,
			"componentType":5126,
			"count":66250,
			"type":"VEC2"
		},
		{
			"bufferView":3,
			"componentType":5126,
			"count":66250,
			"type":"VEC2"
		},
		{
			"bufferView":4,
			"componentType":5125,
			"count":76032,
			"type":"SCALAR"
		},
		{
			"bufferView":5,
			"componentType":5126,
			"count":11685,
			"max":[
				3.7372937202453613,
				1.8104774951934814,
				2.5740041732788086
			],
			"min":[
				-3.611795663833618,
				-0.0634467750787735,
				-3.165926933288574
			],
			"type":"VEC3"
		},
		{
			"bufferView":6,
			"componentType":5126,
			"count":11685,
			"type":"VEC3"
		},
		{
			"bufferView":7,
			"componentType":5126,
			"count":11685,
			"type":"VEC2"
		},
		{
			"bufferView":8,
			"componentType":5126,
			"count":11685,
			"type":"VEC2"
		},
		{
			"bufferView":9,
			"componentType":5123,
			"count":13848,
			"type":"SCALAR"
		},
		{
			"bufferView":10,
			"componentType":5126,
			"count":7131,
			"max":[
				2.0195605754852295,
				0.49094876646995544,
				0.8291445970535278
			],
			"min":[
				1.7075040340423584,
				-0.04668942093849182,
				-0.05653027445077896
			],
			"type":"VEC3"
		},
		{
			"bufferView":11,
			"componentType":5126,
			"count":7131,
			"type":"VEC3"
		},
		{
			"bufferView":12,
			"componentType":5126,
			"count":7131,
			"type":"VEC2"
		},
		{
			"bufferView":13,
			"componentType":5123,
			"count":13062,
			"type":"SCALAR"
		},
		{
			"bufferView":14,
			"componentType":5126,
			"count":113,
			"max":[
				3.3349175453186035,
				0.46125081181526184,
				-0.41371583938598633
			],
			"min":[
				1.097409725189209,
				-4.927063127979636e-05,
				-0.8626587390899658
			],
			"type":"VEC3"
		},
		{
			"bufferView":15,
			"componentType":5126,
			"count":113,
			"type":"VEC3"
		},
		{
			"bufferView":16,
			"componentType":5126,
			"count":113,
			"type":"VEC2"
		},
		{
			"bufferView":17,
			"componentType":5123,
			"count":249,
			"type":"SCALAR"
		},
		{
			"bufferView":18,
			"componentType":5126,
			"count":553,
			"max":[
				2.178402900695801,
				0.41887590289115906,
				0.5923559665679932
			],
			"min":[
				-0.6520747542381287,
				-0.0018821335397660732,
				-0.495169460773468
			],
			"type":"VEC3"
		},
		{
			"bufferView":19,
			"componentType":5126,
			"count":553,
			"type":"VEC3"
		},
		{
			"bufferView":20,
			"componentType":5126,
			"count":553,
			"type":"VEC2"
		},
		{
			"bufferView":21,
			"componentType":5123,
			"count":912,
			"type":"SCALAR"
		},
		{
			"bufferView":22,
			"componentType":5126,
			"count":30,
			"max":[
				3.009427785873413,
				0.47174379229545593,
				-0.41371583938598633
			],
			"min":[
				1.097409725189209,
				0.46125027537345886,
				-1.7641934156417847
			],
			"type":"VEC3"
		},
		{
			"bufferView":23,
			"componentType":5126,
			"count":30,
			"type":"VEC3"
		},
		{
			"bufferView":24,
			"componentType":5126,
			"count":30,
			"type":"VEC2"
		},
		{
			"bufferView":25,
			"componentType":5123,
			"count":78,
			"type":"SCALAR"
		},
		{
			"bufferView":26,
			"componentType":5126,
			"count":496,
			"max":[
				1.1113061904907227,
				0.8246850371360779,
				1.0407297611236572
			],
			"min":[
				-1.5871655941009521,
				0.06963502615690231,
				-1.7203468084335327
			],
			"type":"VEC3"
		},
		{
			"bufferView":27,
			"componentType":5126,
			"count":496,
			"type":"VEC3"
		},
		{
			"bufferView":28,
			"componentType":5126,
			"count":496,
			"type":"VEC2"
		},
		{
			"bufferView":29,
			"componentType":5123,
			"count":816,
			"type":"SCALAR"
		},
		{
			"bufferView":30,
			"componentType":5126,
			"count":1202,
			"max":[
				1.5600074529647827,
				0.6510869860649109,
				-0.413444846868515
			],
			"min":[
				1.4219468832015991,
				0.46142086386680603,
				-0.5653100609779358
			],
			"type":"VEC3"
		},
		{
			"bufferView":31,
			"componentType":5126,
			"count":1202,
			"type":"VEC3"
		},
		{
			"bufferView":32,
			"componentType":5126,
			"count":1202,
			"type":"VEC2"
		},
		{
			"bufferView":33,
			"componentType":5123,
			"count":1968,
			"type":"SCALAR"
		},
		{
			"bufferView":34,
			"componentType":5126,
			"count":26,
			"max":[
				3.737290620803833,
				1.8104774951934814,
				2.5740041732788086
			],
			"min":[
				-3.611795663833618,
				-0.06266794353723526,
				1.5181578397750854
			],
			"type":"VEC3"
		},
		{
			"bufferView":35,
			"componentType":5126,
			"count":26,
			"type":"VEC3"
		},
		{
			"bufferView":36,
			"componentType":5126,
			"count":26,
			"type":"VEC2"
		},
		{
			"bufferView":37,
			"componentType":5123,
			"count":48,
			"type":"SCALAR"
		},
		{
			"bufferView":38,
			"componentType":5126,
			"count":4,
			"max":[
				2.6650197505950928,
				0.9731810688972473,
				-1.7641924619674683
			],
			"min":[
				1.2571260929107666,
				0.4717429280281067,
				-1.7641938924789429
			],
			"type":"VEC3"
		},
		{
			"bufferView":39,
			"componentType":5126,
			"count":4,
			"type":"VEC3"
		},
		{
			"bufferView":40,
			"componentType":5126,
			"count":4,
			"type":"VEC2"
		},
		{
			"bufferView":41,
			"componentType":5123,
			"count":6,
			"type":"SCALAR"
		},
		{
			"bufferView":42,
			"componentType":5126,
			"count":20,
			"max":[
				1.0669937133789062,
				0.03271627053618431,
				1.5242727994918823
			],
			"min":[
				-1.404822826385498,
				-0.00015895844262558967,
				1.250708818435669
			],
			"type":"VEC3"
		},
		{
			"bufferView":43,
			"componentType":5126,
			"count":20,
			"type":"VEC3"
		},
		{
			"bufferView":44,
			"componentType":5126,
			"count":20,
			"type":"VEC2"
		},
		{
			"bufferView":45,
			"componentType":5123,
			"count":36,
			"type":"SCALAR"
		},
		{
			"bufferView":46,
			"componentType":5126,
			"count":6496,
			"max":[
				-1.063629388809204,
				0.914030909538269,
				1.2383745908737183
			],
			"min":[
				-1.4832758903503418,
				0.004046440124511719,
				0.7711025476455688
			],
			"type":"VEC3"
		},
		{
			"bufferView":47,
			"componentType":5126,
			"count":6496,
			"type":"VEC3"
		},
		{
			"bufferView":48,
			"componentType":5126,
			"count":6496,
			"type":"VEC2"
		},
		{
			"bufferView":49,
			"componentType":5123,
			"count":11499,
			"type":"SCALAR"
		},
		{
			"bufferView":50,
			"componentType":5126,
			"count":324,
			"max":[
				2.1517627239227295,
				1.1386381387710571,
				1.1873606443405151
			],
			"min":[
				1.1407793760299683,
				0.6639665961265564,
				1.1346406936645508
			],
			"type":"VEC3"
		},
		{
			"bufferView":51,
			"componentType":5126,
			"count":324,
			"type":"VEC3"
		},
		{
			"bufferView":52,
			"componentType":5126,
			"count":324,
			"type":"VEC2"
		},
		{
			"bufferView":53,
			"componentType":5123,
			"count":375,
			"type":"SCALAR"
		},
		{
			"bufferView":54,
			"componentType":5126,
			"count":1570,
			"max":[
				1.9062916040420532,
				0.7585672736167908,
				-0.4511713981628418
			],
			"min":[
				1.7896958589553833,
				0.6459673047065735,
				-0.5677680969238281
			],
			"type":"VEC3"
		},
		{
			"bufferView":55,
			"componentType":5126,
			"count":1570,
			"type":"VEC3"
		},
		{
			"bufferView":56,
			"componentType":5126,
			"count":1570,
			"type":"VEC2"
		},
		{
			"bufferView":57,
			"componentType":5126,
			"count":1570,
			"type":"VEC2"
		},
		{
			"bufferView":58,
			"componentType":5123,
			"count":2400,
			"type":"SCALAR"
		},
		{
			"bufferView":59,
			"componentType":5126,
			"count":678,
			"max":[
				1.6138139963150024,
				0.831172525882721,
				1.1873466968536377
			],
			"min":[
				1.1757529973983765,
				0.6527528762817383,
				1.153519630432129
			],
			"type":"VEC3"
		},
		{
			"bufferView":60,
			"componentType":5126,
			"count":678,
			"type":"VEC3"
		},
		{
			"bufferView":61,
			"componentType":5126,
			"count":678,
			"type":"VEC2"
		},
		{
			"bufferView":62,
			"componentType":5123,
			"count":792,
			"type":"SCALAR"
		},
		{
			"bufferView":63,
			"componentType":5126,
			"count":2949,
			"max":[
				1.0425533056259155,
				1.332300066947937,
				1.3728632926940918
			],
			"min":[
				-1.3851470947265625,
				0.03440602123737335,
				1.3360642194747925
			],
			"type":"VEC3"
		},
		{
			"bufferView":64,
			"componentType":5126,
			"count":2949,
			"type":"VEC3"
		},
		{
			"bufferView":65,
			"componentType":5126,
			"count":2949,
			"type":"VEC2"
		},
		{
			"bufferView":66,
			"componentType":5123,
			"count":3240,
			"type":"SCALAR"
		},
		{
			"bufferView":67,
			"componentType":5126,
			"count":308,
			"max":[
				2.8849098682403564,
				1.490562081336975,
				1.4604719877243042
			],
			"min":[
				-1.7875454425811768,
				-0.0001585922291269526,
				-3.1659274101257324
			],
			"type":"VEC3"
		},
		{
			"bufferView":68,
			"componentType":5126,
			"count":308,
			"type":"VEC3"
		},
		{
			"bufferView":69,
			"componentType":5126,
			"count":308,
			"type":"VEC2"
		},
		{
			"bufferView":70,
			"componentType":5123,
			"count":609,
			"type":"SCALAR"
		},
		{
			"bufferView":71,
			"componentType":5126,
			"count":16,
			"max":[
				0.4534892737865448,
				1.1325701475143433,
				1.423941969871521
			],
			"min":[
				-0.7158540487289429,
				0.10836664587259293,
				1.4027644395828247
			],
			"type":"VEC3"
		},
		{
			"bufferView":72,
			"componentType":5126,
			"count":16,
			"type":"VEC3"
		},
		{
			"bufferView":73,
			"componentType":5126,
			"count":16,
			"type":"VEC2"
		},
		{
			"bufferView":74,
			"componentType":5126,
			"count":16,
			"type":"VEC2"
		},
		{
			"bufferView":75,
			"componentType":5123,
			"count":24,
			"type":"SCALAR"
		},
		{
			"bufferView":76,
			"componentType":5126,
			"count":1022,
			"max":[
				1.388907790184021,
				0.6525881886482239,
				-0.485225111246109
			],
			"min":[
				1.1223409175872803,
				0.46139082312583923,
				-0.7666001319885254
			],
			"type":"VEC3"
		},
		{
			"bufferView":77,
			"componentType":5126,
			"count":1022,
			"type":"VEC3"
		},
		{
			"bufferView":78,
			"componentType":5126,
			"count":1022,
			"type":"VEC2"
		},
		{
			"bufferView":79,
			"componentType":5126,
			"count":1022,
			"type":"VEC2"
		},
		{
			"bufferView":80,
			"componentType":5123,
			"count":1332,
			"type":"SCALAR"
		},
		{
			"bufferView":81,
			"componentType":5126,
			"count":2578,
			"max":[
				3.7372937202453613,
				1.4885377883911133,
				2.571755886077881
			],
			"min":[
				-3.611795663833618,
				-0.06266726553440094,
				-0.7645806074142456
			],
			"type":"VEC3"
		},
		{
			"bufferView":82,
			"componentType":5126,
			"count":2578,
			"type":"VEC3"
		},
		{
			"bufferView":83,
			"componentType":5126,
			"count":2578,
			"type":"VEC2"
		},
		{
			"bufferView":84,
			"componentType":5123,
			"count":3696,
			"type":"SCALAR"
		},
		{
			"bufferView":85,
			"componentType":5126,
			"count":828,
			"max":[
				1.9151875972747803,
				0.6416835188865662,
				-0.44270560145378113
			],
			"min":[
				1.7807749509811401,
				0.46144649386405945,
				-0.5649009346961975
			],
			"type":"VEC3"
		},
		{
			"bufferView":86,
			"componentType":5126,
			"count":828,
			"type":"VEC3"
		},
		{
			"bufferView":87,
			"componentType":5126,
			"count":828,
			"type":"VEC2"
		},
		{
			"bufferView":88,
			"componentType":5123,
			"count":1341,
			"type":"SCALAR"
		},
		{
			"bufferView":89,
			"componentType":5126,
			"count":32,
			"max":[
				3.7372937202453613,
				0.5982198119163513,
				2.560732126235962
			],
			"min":[
				-3.611795663833618,
				-0.014977463521063328,
				2.5607306957244873
			],
			"type":"VEC3"
		},
		{
			"bufferView":90,
			"componentType":5126,
			"count":32,
			"type":"VEC3"
		},
		{
			"bufferView":91,
			"componentType":5126,
			"count":32,
			"type":"VEC2"
		},
		{
			"bufferView":92,
			"componentType":5126,
			"count":32,
			"type":"VEC2"
		},
		{
			"bufferView":93,
			"componentType":5123,
			"count":48,
			"type":"SCALAR"
		},
		{
			"bufferView":94,
			"componentType":5126,
			"count":3772,
			"max":[
				-1.4393393993377686,
				1.3056689500808716,
				0.9404683113098145
			],
			"min":[
				-1.7673951387405396,
				-7.604217535117641e-05,
				-1.1864604949951172
			],
			"type":"VEC3"
		},
		{
			"bufferView":95,
			"componentType":5126,
			"count":3772,
			"type":"VEC3"
		},
		{
			"bufferView":96,
			"componentType":5126,
			"count":3772,
			"type":"VEC2"
		},
		{
			"bufferView":97,
			"componentType":5123,
			"count":4845,
			"type":"SCALAR"
		},
		{
			"bufferView":98,
			"componentType":5126,
			"count":104,
			"max":[
				0.4307558834552765,
				0.2430240362882614,
				-0.20776613056659698
			],
			"min":[
				0.18374952673912048,
				0.04508502408862114,
				-0.2977016866207123
			],
			"type":"VEC3"
		},
		{
			"bufferView":99,
			"componentType":5126,
			"count":104,
			"type":"VEC3"
		},
		{
			"bufferView":100,
			"componentType":5126,
			"count":104,
			"type":"VEC2"
		},
		{
			"bufferView":101,
			"componentType":5123,
			"count":132,
			"type":"SCALAR"
		},
		{
			"bufferView":102,
			"componentType":5126,
			"count":16,
			"max":[
				0.9834932088851929,
				1.2161710262298584,
				1.4398232698440552
			],
			"min":[
				-1.3198179006576538,
				0.12804384529590607,
				1.4221023321151733
			],
			"type":"VEC3"
		},
		{
			"bufferView":103,
			"componentType":5126,
			"count":16,
			"type":"VEC3"
		},
		{
			"bufferView":104,
			"componentType":5126,
			"count":16,
			"type":"VEC2"
		},
		{
			"bufferView":105,
			"componentType":5126,
			"count":16,
			"type":"VEC2"
		},
		{
			"bufferView":106,
			"componentType":5126,
			"count":1033,
			"max":[
				-0.9990415573120117,
				0.9610109329223633,
				1.2796655893325806
			],
			"min":[
				-1.5472251176834106,
				0.3869512975215912,
				0.7145105600357056
			],
			"type":"VEC3"
		},
		{
			"bufferView":107,
			"componentType":5126,
			"count":1033,
			"type":"VEC3"
		},
		{
			"bufferView":108,
			"componentType":5126,
			"count":1033,
			"type":"VEC2"
		},
		{
			"bufferView":109,
			"componentType":5126,
			"count":1033,
			"type":"VEC2"
		},
		{
			"bufferView":110,
			"componentType":5123,
			"count":1488,
			"type":"SCALAR"
		},
		{
			"bufferView":111,
			"componentType":5126,
			"count":242,
			"max":[
				1.995863914489746,
				1.4885499477386475,
				0.8621572852134705
			],
			"min":[
				-1.0371577739715576,
				1.475833773612976,
				0.4929087162017822
			],
			"type":"VEC3"
		},
		{
			"bufferView":112,
			"componentType":5126,
			"count":242,
			"type":"VEC3"
		},
		{
			"bufferView":113,
			"componentType":5126,
			"count":242,
			"type":"VEC2"
		},
		{
			"bufferView":114,
			"componentType":5123,
			"count":450,
			"type":"SCALAR"
		},
		{
			"bufferView":115,
			"componentType":5126,
			"count":393,
			"max":[
				-0.32155224680900574,
				1.210306167602539,
				-1.5857974290847778
			],
			"min":[
				-1.607932209968567,
				-0.00015945435734465718,
				-1.673234462738037
			],
			"type":"VEC3"
		},
		{
			"bufferView":116,
			"componentType":5126,
			"count":393,
			"type":"VEC3"
		},
		{
			"bufferView":117,
			"componentType":5126,
			"count":393,
			"type":"VEC2"
		},
		{
			"bufferView":118,
			"componentType":5123,
			"count":630,
			"type":"SCALAR"
		},
		{
			"bufferView":119,
			"componentType":5126,
			"count":2045,
			"max":[
				1.8787789344787598,
				0.614827573299408,
				-0.5644121170043945
			],
			"min":[
				1.4910449981689453,
				0.403705358505249,
				-0.8454448580741882
			],
			"type":"VEC3"
		},
		{
			"bufferView":120,
			"componentType":5126,
			"count":2045,
			"type":"VEC3"
		},
		{
			"bufferView":121,
			"componentType":5126,
			"count":2045,
			"type":"VEC2"
		},
		{
			"bufferView":122,
			"componentType":5123,
			"count":3057,
			"type":"SCALAR"
		},
		{
			"bufferView":123,
			"componentType":5126,
			"count":23,
			"max":[
				2.8849098682403564,
				-0.00015895844262558967,
				1.250708818435669
			],
			"min":[
				-1.7875454425811768,
				-0.0001596679794602096,
				-3.1620304584503174
			],
			"type":"VEC3"
		},
		{
			"bufferView":124,
			"componentType":5126,
			"count":23,
			"type":"VEC3"
		},
		{
			"bufferView":125,
			"componentType":5126,
			"count":23,
			"type":"VEC2"
		},
		{
			"bufferView":126,
			"componentType":5123,
			"count":45,
			"type":"SCALAR"
		},
		{
			"bufferView":127,
			"componentType":5126,
			"count":370,
			"max":[
				-1.4967114925384521,
				0.8077142238616943,
				0.2112675905227661
			],
			"min":[
				-1.6474205255508423,
				0.2962791323661804,
				-0.4493159353733063
			],
			"type":"VEC3"
		},
		{
			"bufferView":128,
			"componentType":5126,
			"count":370,
			"type":"VEC3"
		},
		{
			"bufferView":129,
			"componentType":5126,
			"count":370,
			"type":"VEC2"
		},
		{
			"bufferView":130,
			"componentType":5123,
			"count":522,
			"type":"SCALAR"
		},
		{
			"bufferView":131,
			"componentType":5126,
			"count":591,
			"max":[
				0.6441172361373901,
				0.014325501397252083,
				0.6346897482872009
			],
			"min":[
				-0.989996612071991,
				0.004985069390386343,
				-1.5478721857070923
			],
			"type":"VEC3"
		},
		{
			"bufferView":132,
			"componentType":5126,
			"count":591,
			"type":"VEC3"
		},
		{
			"bufferView":133,
			"componentType":5126,
			"count":591,
			"type":"VEC2"
		},
		{
			"bufferView":134,
			"componentType":5126,
			"count":591,
			"type":"VEC2"
		},
		{
			"bufferView":135,
			"componentType":5123,
			"count":1155,
			"type":"SCALAR"
		},
		{
			"bufferView":136,
			"componentType":5126,
			"count":12731,
			"max":[
				0.4760630130767822,
				0.531821608543396,
				0.5103493928909302
			],
			"min":[
				-0.8548970222473145,
				-0.0012128525413572788,
				-1.1903799772262573
			],
			"type":"VEC3"
		},
		{
			"bufferView":137,
			"componentType":5126,
			"count":12731,
			"type":"VEC3"
		},
		{
			"bufferView":138,
			"componentType":5126,
			"count":12731,
			"type":"VEC2"
		},
		{
			"bufferView":139,
			"componentType":5123,
			"count":25293,
			"type":"SCALAR"
		},
		{
			"bufferView":140,
			"componentType":5126,
			"count":2175,
			"max":[
				1.9093878269195557,
				0.7954618334770203,
				-0.44807571172714233
			],
			"min":[
				1.7866007089614868,
				0.6425282955169678,
				-0.5708637833595276
			],
			"type":"VEC3"
		},
		{
			"bufferView":141,
			"componentType":5126,
			"count":2175,
			"type":"VEC3"
		},
		{
			"bufferView":142,
			"componentType":5126,
			"count":2175,
			"type":"VEC2"
		},
		{
			"bufferView":143,
			"componentType":5126,
			"count":2175,
			"type":"VEC2"
		},
		{
			"bufferView":144,
			"componentType":5123,
			"count":3714,
			"type":"SCALAR"
		},
		{
			"bufferView":145,
			"componentType":5126,
			"count":108,
			"max":[
				2.665020704269409,
				1.3552701473236084,
				-1.3883838653564453
			],
			"min":[
				1.2571260929107666,
				-0.0002676773292478174,
				-1.7641938924789429
			],
			"type":"VEC3"
		},
		{
			"bufferView":146,
			"componentType":5126,
			"count":108,
			"type":"VEC3"
		},
		{
			"bufferView":147,
			"componentType":5126,
			"count":108,
			"type":"VEC2"
		},
		{
			"bufferView":148,
			"componentType":5123,
			"count":174,
			"type":"SCALAR"
		},
		{
			"bufferView":149,
			"componentType":5126,
			"count":36,
			"max":[
				-1.8075649738311768,
				1.5806454420089722,
				2.433469772338867
			],
			"min":[
				-1.8403785228729248,
				-0.0634467750787735,
				1.2158203125
			],
			"type":"VEC3"
		},
		{
			"bufferView":150,
			"componentType":5126,
			"count":36,
			"type":"VEC3"
		},
		{
			"bufferView":151,
			"componentType":5126,
			"count":36,
			"type":"VEC2"
		},
		{
			"bufferView":152,
			"componentType":5123,
			"count":54,
			"type":"SCALAR"
		},
		{
			"bufferView":153,
			"componentType":5126,
			"count":231,
			"max":[
				2.8849098682403564,
				1.4905619621276855,
				1.3355064392089844
			],
			"min":[
				-1.7875454425811768,
				-0.00015953827823977917,
				-3.1659274101257324
			],
			"type":"VEC3"
		},
		{
			"bufferView":154,
			"componentType":5126,
			"count":231,
			"type":"VEC3"
		},
		{
			"bufferView":155,
			"componentType":5126,
			"count":231,
			"type":"VEC2"
		},
		{
			"bufferView":156,
			"componentType":5123,
			"count":366,
			"type":"SCALAR"
		},
		{
			"bufferView":157,
			"componentType":5126,
			"count":517,
			"max":[
				-1.552024006843567,
				0.3483050763607025,
				2.140012741088867
			],
			"min":[
				-1.76652991771698,
				-0.06347538530826569,
				1.603253960609436
			],
			"type":"VEC3"
		},
		{
			"bufferView":158,
			"componentType":5126,
			"count":517,
			"type":"VEC3"
		},
		{
			"bufferView":159,
			"componentType":5126,
			"count":517,
			"type":"VEC2"
		},
		{
			"bufferView":160,
			"componentType":5126,
			"count":517,
			"type":"VEC2"
		},
		{
			"bufferView":161,
			"componentType":5123,
			"count":732,
			"type":"SCALAR"
		},
		{
			"bufferView":162,
			"componentType":5126,
			"count":1407,
			"max":[
				0.6292129158973694,
				1.4851915836334229,
				0.4376523792743683
			],
			"min":[
				-1.5683364868164062,
				1.3480486869812012,
				-0.749823272228241
			],
			"type":"VEC3"
		},
		{
			"bufferView":163,
			"componentType":5126,
			"count":1407,
			"type":"VEC3"
		},
		{
			"bufferView":164,
			"componentType":5126,
			"count":1407,
			"type":"VEC2"
		},
		{
			"bufferView":165,
			"componentType":5123,
			"count":2424,
			"type":"SCALAR"
		},
		{
			"bufferView":166,
			"componentType":5126,
			"count":738,
			"max":[
				0.4682837128639221,
				0.25989413261413574,
				-0.19578321278095245
			],
			"min":[
				0.17212988436222076,
				0.011285049840807915,
				-0.34938380122184753
			],
			"type":"VEC3"
		},
		{
			"bufferView":167,
			"componentType":5126,
			"count":738,
			"type":"VEC3"
		},
		{
			"bufferView":168,
			"componentType":5126,
			"count":738,
			"type":"VEC2"
		},
		{
			"bufferView":169,
			"componentType":5123,
			"count":1260,
			"type":"SCALAR"
		},
		{
			"bufferView":170,
			"componentType":5126,
			"count":314,
			"max":[
				2.203291654586792,
				0.41588181257247925,
				0.6977705359458923
			],
			"min":[
				1.132815957069397,
				0.39793720841407776,
				0.06554492563009262
			],
			"type":"VEC3"
		},
		{
			"bufferView":171,
			"componentType":5126,
			"count":314,
			"type":"VEC3"
		},
		{
			"bufferView":172,
			"componentType":5126,
			"count":314,
			"type":"VEC2"
		},
		{
			"bufferView":173,
			"componentType":5123,
			"count":786,
			"type":"SCALAR"
		},
		{
			"bufferView":174,
			"componentType":5126,
			"count":13,
			"max":[
				2.8849098682403564,
				1.4905619621276855,
				0.9073562622070312
			],
			"min":[
				-1.7875454425811768,
				1.3520910739898682,
				-3.165926933288574
			],
			"type":"VEC3"
		},
		{
			"bufferView":175,
			"componentType":5126,
			"count":13,
			"type":"VEC3"
		},
		{
			"bufferView":176,
			"componentType":5126,
			"count":13,
			"type":"VEC2"
		},
		{
			"bufferView":177,
			"componentType":5123,
			"count":21,
			"type":"SCALAR"
		},
		{
			"bufferView":178,
			"componentType":5126,
			"count":78,
			"max":[
				-0.0655498057603836,
				0.2839386761188507,
				-0.16407862305641174
			],
			"min":[
				-0.7441890239715576,
				0.27253416180610657,
				-0.6052656769752502
			],
			"type":"VEC3"
		},
		{
			"bufferView":179,
			"componentType":5126,
			"count":78,
			"type":"VEC3"
		},
		{
			"bufferView":180,
			"componentType":5126,
			"count":78,
			"type":"VEC2"
		},
		{
			"bufferView":181,
			"componentType":5126,
			"count":78,
			"type":"VEC2"
		},
		{
			"bufferView":182,
			"componentType":5123,
			"count":177,
			"type":"SCALAR"
		}
	],
	"bufferViews":[
		{
			"buffer":0,
			"byteLength":795000,
			"byteOffset":0,
			"target":34962
		},
		{
			"buffer":0,
			"byteLength":795000,
			"byteOffset":795000,
			"target":34962
		},
		{
			"buffer":0,
			"byteLength":530000,
			"byteOffset":1590000,
			"target":34962
		},
		{
			"buffer":0,
			"byteLength":530000,
			"byteOffset":2120000,
			"target":34962
		},
		{
			"buffer":0,
			"byteLength":304128,
			"byteOffset":2650000,
			"target":34963
		},
		{
			"buffer":0,
			"byteLength":140220,
			"byteOffset":2954128,
			"target":34962
		},
		{
			"buffer":0,
			"byteLength":140220,
			"byteOffset":3094348,
			"target":34962
		},
		{
			"buffer":0,
			"byteLength":93480,
			"byteOffset":3234568,
			"target":34962
		},
		{
			"buffer":0,
			"byteLength":93480,
			"byteOffset":3328048,
			"target":34962
		},
		{
			"buffer":0,
			"byteLength":27696,
			"byteOffset":3421528,
			"target":34963
		},
		{
			"buffer":0,
			"byteLength":85572,
			"byteOffset":3449224,
			"target":34962
		},
		{
			"buffer":0,
			"byteLength":85572,
			"byteOffset":3534796,
			"target":34962
		},
		{
			"buffer":0,
			"byteLength":57048,
			"byteOffset":3620368,
			"target":34962
		},
		{
			"buffer":0,
			"byteLength":26124,
			"byteOffset":3677416,
			"target":34963
		},
		{
			"buffer":0,
			"byteLength":1356,
			"byteOffset":3703540,
			"target":34962
		},
		{
			"buffer":0,
			"byteLength":1356,
			"byteOffset":3704896,
			"target":34962
		},
		{
			"buffer":0,
			"byteLength":904,
			"byteOffset":3706252,
			"target":34962
		},
		{
			"buffer":0,
			"byteLength":498,
			"byteOffset":3707156,
			"target":34963
		},
		{
			"buffer":0,
			"byteLength":6636,
			"byteOffset":3707656,
			"target":34962
		},
		{
			"buffer":0,
			"byteLength":6636,
			"byteOffset":3714292,
			"target":34962
		},
		{
			"buffer":0,
			"byteLength":4424,
			"byteOffset":3720928,
			"target":34962
		},
		{
			"buffer":0,
			"byteLength":1824,
			"byteOffset":3725352,
			"target":34963
		},
		{
			"buffer":0,
			"byteLength":360,
			"byteOffset":3727176,
			"target":34962
		},
		{
			"buffer":0,
			"byteLength":360,
			"byteOffset":3727536,
			"target":34962
		},
		{
			"buffer":0,
			"byteLength":240,
			"byteOffset":3727896,
			"target":34962
		},
		{
			"buffer":0,
			"byteLength":156,
			"byteOffset":3728136,
			"target":34963
		},
		{
			"buffer":0,
			"byteLength":5952,
			"byteOffset":3728292,
			"target":34962
		},
		{
			"buffer":0,
			"byteLength":5952,
			"byteOffset":3734244,
			"target":34962
		},
		{
			"buffer":0,
			"byteLength":3968,
			"byteOffset":3740196,
			"target":34962
		},
		{
			"buffer":0,
			"byteLength":1632,
			"byteOffset":3744164,
			"target":34963
		},
		{
			"buffer":0,
			"byteLength":14424,
			"byteOffset":3745796,
			"target":34962
		},
		{
			"buffer":0,
			"byteLength":14424,
			"byteOffset":3760220,
			"target":34962
		},
		{
			"buffer":0,
			"byteLength":9616,
			"byteOffset":3774644,
			"target":34962
		},
		{
			"buffer":0,
			"byteLength":3936,
			"byteOffset":3784260,
			"target":34963
		},
		{
			"buffer":0,
			"byteLength":312,
			"byteOffset":3788196,
			"target":34962
		},
		{
			"buffer":0,
			"byteLength":312,
			"byteOffset":3788508,
			"target":34962
		},
		{
			"buffer":0,
			"byteLength":208,
			"byteOffset":3788820,
			"target":34962
		},
		{
			"buffer":0,
			"byteLength":96,
			"byteOffset":3789028,
			"target":34963
		},
		{
			"buffer":0,
			"byteLength":48,
			"byteOffset":3789124,
			"target":34962
		},
		{
			"buffer":0,
			"byteLength":48,
			"byteOffset":3789172,
			"target":34962
		},
		{
			"buffer":0,
			"byteLength":32,
			"byteOffset":3789220,
			"target":34962
		},
		{
			"buffer":0,
			"byteLength":12,
			"byteOffset":3789252,
			"target":34963
		},
		{
			"buffer":0,
			"byteLength":240,
			"byteOffset":3789264,
			"target":34962
		},
		{
			"buffer":0,
			"byteLength":240,
			"byteOffset":3789504,
			"target":34962
		},
		{
			"buffer":0,
			"byteLength":160,
			"byteOffset":3789744,
			"target":34962
		},
		{
			"buffer":0,
			"byteLength":72,
			"byteOffset":3789904,
			"target":34963
		},
		{
			"buffer":0,
			"byteLength":77952,
			"byteOffset":3789976,
			"target":34962
		},
		{
			"buffer":0,
			"byteLength":77952,
			"byteOffset":3867928,
			"target":34962
		},
		{
			"buffer":0,
			"byteLength":51968,
			"byteOffset":3945880,
			"target":34962
		},
		{
			"buffer":0,
			"byteLength":22998,
			"byteOffset":3997848,
			"target":34963
		},
		{
			"buffer":0,
			"byteLength":3888,
			"byteOffset":4020848,
			"target":34962
		},
		{
			"buffer":0,
			"byteLength":3888,
			"byteOffset":4024736,
			"target":34962
		},
		{
			"buffer":0,
			"byteLength":2592,
			"byteOffset":4028624,
			"target":34962
		},
		{
			"buffer":0,
			"byteLength":750,
			"byteOffset":4031216,
			"target":34963
		},
		{
			"buffer":0,
			"byteLength":18840,
			"byteOffset":4031968,
			"target":34962
		},
		{
			"buffer":0,
			"byteLength":18840,
			"byteOffset":4050808,
			"target":34962
		},
		{
			"buffer":0,
			"byteLength":12560,
			"byteOffset":4069648,
			"target":34962
		},
		{
			"buffer":0,
			"byteLength":12560,
			"byteOffset":4082208,
			"target":34962
		},
		{
			"buffer":0,
			"byteLength":4800,
			"byteOffset":4094768,
			"target":34963
		},
		{
			"buffer":0,
			"byteLength":8136,
			"byteOffset":4099568,
			"target":34962
		},
		{
			"buffer":0,
			"byteLength":8136,
			"byteOffset":4107704,
			"target":34962
		},
		{
			"buffer":0,
			"byteLength":5424,
			"byteOffset":4115840,
			"target":34962
		},
		{
			"buffer":0,
			"byteLength":1584,
			"byteOffset":4121264,
			"target":34963
		},
		{
			"buffer":0,
			"byteLength":35388,
			"byteOffset":4122848,
			"target":34962
		},
		{
			"buffer":0,
			"byteLength":35388,
			"byteOffset":4158236,
			"target":34962
		},
		{
			"buffer":0,
			"byteLength":23592,
			"byteOffset":4193624,
			"target":34962
		},
		{
			"buffer":0,
			"byteLength":6480,
			"byteOffset":4217216,
			"target":34963
		},
		{
			"buffer":0,
			"byteLength":3696,
			"byteOffset":4223696,
			"target":34962
		},
		{
			"buffer":0,
			"byteLength":3696,
			"byteOffset":4227392,
			"target":34962
		},
		{
			"buffer":0,
			"byteLength":2464,
			"byteOffset":4231088,
			"target":34962
		},
		{
			"buffer":0,
			"byteLength":1218,
			"byteOffset":4233552,
			"target":34963
		},
		{
			"buffer":0,
			"byteLength":192,
			"byteOffset":4234772,
			"target":34962
		},
		{
			"buffer":0,
			"byteLength":192,
			"byteOffset":4234964,
			"target":34962
		},
		{
			"buffer":0,
			"byteLength":128,
			"byteOffset":4235156,
			"target":34962
		},
		{
			"buffer":0,
			"byteLength":128,
			"byteOffset":4235284,
			"target":34962
		},
		{
			"buffer":0,
			"byteLength":48,
			"byteOffset":4235412,
			"target":34963
		},
		{
			"buffer":0,
			"byteLength":12264,
			"byteOffset":4235460,
			"target":34962
		},
		{
			"buffer":0,
			"byteLength":12264,
			"byteOffset":4247724,
			"target":34962
		},
		{
			"buffer":0,
			"byteLength":8176,
			"byteOffset":4259988,
			"target":34962
		},
		{
			"buffer":0,
			"byteLength":8176,
			"byteOffset":4268164,
			"target":34962
		},
		{
			"buffer":0,
			"byteLength":2664,
			"byteOffset":4276340,
			"target":34963
		},
		{
			"buffer":0,
			"byteLength":30936,
			"byteOffset":4279004,
			"target":34962
		},
		{
			"buffer":0,
			"byteLength":30936,
			"byteOffset":4309940,
			"target":34962
		},
		{
			"buffer":0,
			"byteLength":20624,
			"byteOffset":4340876,
			"target":34962
		},
		{
			"buffer":0,
			"byteLength":7392,
			"byteOffset":4361500,
			"target":34963
		},
		{
			"buffer":0,
			"byteLength":9936,
			"byteOffset":4368892,
			"target":34962
		},
		{
			"buffer":0,
			"byteLength":9936,
			"byteOffset":4378828,
			"target":34962
		},
		{
			"buffer":0,
			"byteLength":6624,
			"byteOffset":4388764,
			"target":34962
		},
		{
			"buffer":0,
			"byteLength":2682,
			"byteOffset":4395388,
			"target":34963
		},
		{
			"buffer":0,
			"byteLength":384,
			"byteOffset":4398072,
			"target":34962
		},
		{
			"buffer":0,
			"byteLength":384,
			"byteOffset":4398456,
			"target":34962
		},
		{
			"buffer":0,
			"byteLength":256,
			"byteOffset":4398840,
			"target":34962
		},
		{
			"buffer":0,
			"byteLength":256,
			"byteOffset":4399096,
			"target":34962
		},
		{
			"buffer":0,
			"byteLength":96,
			"byteOffset":4399352,
			"target":34963
		},
		{
			"buffer":0,
			"byteLength":45264,
			"byteOffset":4399448,
			"target":34962
		},
		{
			"buffer":0,
			"byteLength":45264,
			"byteOffset":4444712,
			"target":34962
		},
		{
			"buffer":0,
			"byteLength":30176,
			"byteOffset":4489976,
			"target":34962
		},
		{
			"buffer":0,
			"byteLength":9690,
			"byteOffset":4520152,
			"target":34963
		},
		{
			"buffer":0,
			"byteLength":1248,
			"byteOffset":4529844,
			"target":34962
		},
		{
			"buffer":0,
			"byteLength":1248,
			"byteOffset":4531092,
			"target":34962
		},
		{
			"buffer":0,
			"byteLength":832,
			"byteOffset":4532340,
			"target":34962
		},
		{
			"buffer":0,
			"byteLength":264,
			"byteOffset":4533172,
			"target":34963
		},
		{
			"buffer":0,
			"byteLength":192,
			"byteOffset":4533436,
			"target":34962
		},
		{
			"buffer":0,
			"byteLength":192,
			"byteOffset":4533628,
			"target":34962
		},
		{
			"buffer":0,
			"byteLength":128,
			"byteOffset":4533820,
			"target":34962
		},
		{
			"buffer":0,
			"byteLength":128,
			"byteOffset":4533948,
			"target":34962
		},
		{
			"buffer":0,
			"byteLength":12396,
			"byteOffset":4534076,
			"target":34962
		},
		{
			"buffer":0,
			"byteLength":12396,
			"byteOffset":4546472,
			"target":34962
		},
		{
			"buffer":0,
			"byteLength":8264,
			"byteOffset":4558868,
			"target":34962
		},
		{
			"buffer":0,
			"byteLength":8264,
			"byteOffset":4567132,
			"target":34962
		},
		{
			"buffer":0,
			"byteLength":2976,
			"byteOffset":4575396,
			"target":34963
		},
		{
			"buffer":0,
			"byteLength":2904,
			"byteOffset":4578372,
			"target":34962
		},
		{
			"buffer":0,
			"byteLength":2904,
			"byteOffset":4581276,
			"target":34962
		},
		{
			"buffer":0,
			"byteLength":1936,
			"byteOffset":4584180,
			"target":34962
		},
		{
			"buffer":0,
			"byteLength":900,
			"byteOffset":4586116,
			"target":34963
		},
		{
			"buffer":0,
			"byteLength":4716,
			"byteOffset":4587016,
			"target":34962
		},
		{
			"buffer":0,
			"byteLength":4716,
			"byteOffset":4591732,
			"target":34962
		},
		{
			"buffer":0,
			"byteLength":3144,
			"byteOffset":4596448,
			"target":34962
		},
		{
			"buffer":0,
			"byteLength":1260,
			"byteOffset":4599592,
			"target":34963
		},
		{
			"buffer":0,
			"byteLength":24540,
			"byteOffset":4600852,
			"target":34962
		},
		{
			"buffer":0,
			"byteLength":24540,
			"byteOffset":4625392,
			"target":34962
		},
		{
			"buffer":0,
			"byteLength":16360,
			"byteOffset":4649932,
			"target":34962
		},
		{
			"buffer":0,
			"byteLength":6114,
			"byteOffset":4666292,
			"target":34963
		},
		{
			"buffer":0,
			"byteLength":276,
			"byteOffset":4672408,
			"target":34962
		},
		{
			"buffer":0,
			"byteLength":276,
			"byteOffset":4672684,
			"target":34962
		},
		{
			"buffer":0,
			"byteLength":184,
			"byteOffset":4672960,
			"target":34962
		},
		{
			"buffer":0,
			"byteLength":90,
			"byteOffset":4673144,
			"target":34963
		},
		{
			"buffer":0,
			"byteLength":4440,
			"byteOffset":4673236,
			"target":34962
		},
		{
			"buffer":0,
			"byteLength":4440,
			"byteOffset":4677676,
			"target":34962
		},
		{
			"buffer":0,
			"byteLength":2960,
			"byteOffset":4682116,
			"target":34962
		},
		{
			"buffer":0,
			"byteLength":1044,
			"byteOffset":4685076,
			"target":34963
		},
		{
			"buffer":0,
			"byteLength":7092,
			"byteOffset":4686120,
			"target":34962
		},
		{
			"buffer":0,
			"byteLength":7092,
			"byteOffset":4693212,
			"target":34962
		},
		{
			"buffer":0,
			"byteLength":4728,
			"byteOffset":4700304,
			"target":34962
		},
		{
			"buffer":0,
			"byteLength":4728,
			"byteOffset":4705032,
			"target":34962
		},
		{
			"buffer":0,
			"byteLength":2310,
			"byteOffset":4709760,
			"target":34963
		},
		{
			"buffer":0,
			"byteLength":152772,
			"byteOffset":4712072,
			"target":34962
		},
		{
			"buffer":0,
			"byteLength":152772,
			"byteOffset":4864844,
			"target":34962
		},
		{
			"buffer":0,
			"byteLength":101848,
			"byteOffset":5017616,
			"target":34962
		},
		{
			"buffer":0,
			"byteLength":50586,
			"byteOffset":5119464,
			"target":34963
		},
		{
			"buffer":0,
			"byteLength":26100,
			"byteOffset":5170052,
			"target":34962
		},
		{
			"buffer":0,
			"byteLength":26100,
			"byteOffset":5196152,
			"target":34962
		},
		{
			"buffer":0,
			"byteLength":17400,
			"byteOffset":5222252,
			"target":34962
		},
		{
			"buffer":0,
			"byteLength":17400,
			"byteOffset":5239652,
			"target":34962
		},
		{
			"buffer":0,
			"byteLength":7428,
			"byteOffset":5257052,
			"target":34963
		},
		{
			"buffer":0,
			"byteLength":1296,
			"byteOffset":5264480,
			"target":34962
		},
		{
			"buffer":0,
			"byteLength":1296,
			"byteOffset":5265776,
			"target":34962
		},
		{
			"buffer":0,
			"byteLength":864,
			"byteOffset":5267072,
			"target":34962
		},
		{
			"buffer":0,
			"byteLength":348,
			"byteOffset":5267936,
			"target":34963
		},
		{
			"buffer":0,
			"byteLength":432,
			"byteOffset":5268284,
			"target":34962
		},
		{
			"buffer":0,
			"byteLength":432,
			"byteOffset":5268716,
			"target":34962
		},
		{
			"buffer":0,
			"byteLength":288,
			"byteOffset":5269148,
			"target":34962
		},
		{
			"buffer":0,
			"byteLength":108,
			"byteOffset":5269436,
			"target":34963
		},
		{
			"buffer":0,
			"byteLength":2772,
			"byteOffset":5269544,
			"target":34962
		},
		{
			"buffer":0,
			"byteLength":2772,
			"byteOffset":5272316,
			"target":34962
		},
		{
			"buffer":0,
			"byteLength":1848,
			"byteOffset":5275088,
			"target":34962
		},
		{
			"buffer":0,
			"byteLength":732,
			"byteOffset":5276936,
			"target":34963
		},
		{
			"buffer":0,
			"byteLength":6204,
			"byteOffset":5277668,
			"target":34962
		},
		{
			"buffer":0,
			"byteLength":6204,
			"byteOffset":5283872,
			"target":34962
		},
		{
			"buffer":0,
			"byteLength":4136,
			"byteOffset":5290076,
			"target":34962
		},
		{
			"buffer":0,
			"byteLength":4136,
			"byteOffset":5294212,
			"target":34962
		},
		{
			"buffer":0,
			"byteLength":1464,
			"byteOffset":5298348,
			"target":34963
		},
		{
			"buffer":0,
			"byteLength":16884,
			"byteOffset":5299812,
			"target":34962
		},
		{
			"buffer":0,
			"byteLength":16884,
			"byteOffset":5316696,
			"target":34962
		},
		{
			"buffer":0,
			"byteLength":11256,
			"byteOffset":5333580,
			"target":34962
		},
		{
			"buffer":0,
			"byteLength":4848,
			"byteOffset":5344836,
			"target":34963
		},
		{
			"buffer":0,
			"byteLength":8856,
			"byteOffset":5349684,
			"target":34962
		},
		{
			"buffer":0,
			"byteLength":8856,
			"byteOffset":5358540,
			"target":34962
		},
		{
			"buffer":0,
			"byteLength":5904,
			"byteOffset":5367396,
			"target":34962
		},
		{
			"buffer":0,
			"byteLength":2520,
			"byteOffset":5373300,
			"target":34963
		},
		{
			"buffer":0,
			"byteLength":3768,
			"byteOffset":5375820,
			"target":34962
		},
		{
			"buffer":0,
			"byteLength":3768,
			"byteOffset":5379588,
			"target":34962
		},
		{
			"buffer":0,
			"byteLength":2512,
			"byteOffset":5383356,
			"target":34962
		},
		{
			"buffer":0,
			"byteLength":1572,
			"byteOffset":5385868,
			"target":34963
		},
		{
			"buffer":0,
			"byteLength":156,
			"byteOffset":5387440,
			"target":34962
		},
		{
			"buffer":0,
			"byteLength":156,
			"byteOffset":5387596,
			"target":34962
		},
		{
			"buffer":0,
			"byteLength":104,
			"byteOffset":5387752,
			"target":34962
		},
		{
			"buffer":0,
			"byteLength":42,
			"byteOffset":5387856,
			"target":34963
		},
		{
			"buffer":0,
			"byteLength":936,
			"byteOffset":5387900,
			"target":34962
		},
		{
			"buffer":0,
			"byteLength":936,
			"byteOffset":5388836,
			"target":34962
		},
		{
			"buffer":0,
			"byteLength":624,
			"byteOffset":5389772,
			"target":34962
		},
		{
			"buffer":0,
			"byteLength":624,
			"byteOffset":5390396,
			"target":34962
		},
		{
			"buffer":0,
			"byteLength":354,
			"byteOffset":5391020,
			"target":34963
		}
	],
	"samplers":[
		{
			"magFilter":9729,
			"minFilter":9987
		}
	],
	"buffers":[
		{
			"byteLength":5391376,
			"uri":"House_Interior.bin"
		}
	]
}
