{
	"asset":{
		"generator":"Khronos glTF Blender I/O v5.0.21",
		"version":"2.0"
	},
	"extensionsUsed":[
		"KHR_materials_specular",
		"KHR_materials_ior"
	],
	"scene":0,
	"scenes":[
		{
			"name":"Scene",
			"nodes":[
				0
			]
		}
	],
	"nodes":[
		{
			"mesh":0,
			"name":"ReleaseTray",
			"scale":[
				0.009999999776482582,
				0.010000002570450306,
				0.010000002570450306
			]
		}
	],
	"materials":[
		{
			"doubleSided":true,
			"emissiveFactor":[
				0.2594652473926544,
				0.2594652473926544,
				0.2594652473926544
			],
			"emissiveTexture":{
				"index":0
			},
			"extensions":{
				"KHR_materials_specular":{
					"specularColorFactor":[
						0.796755313873291,
						0.796755313873291,
						0.796755313873291
					],
					"specularColorTexture":{
						"index":1
					}
				},
				"KHR_materials_ior":{
					"ior":1000
				}
			},
			"name":"BluePlastic",
			"occlusionTexture":{
				"index":2,
				"strength":0.3294145464897156
			},
			"pbrMetallicRoughness":{
				"baseColorTexture":{
					"index":3
				},
				"metallicFactor":0,
				"metallicRoughnessTexture":{
					"index":2
				}
			}
		}
	],
	"meshes":[
		{
			"name":"ReleaseTray_BluePlastic_0",
			"primitives":[
				{
					"attributes":{
						"POSITION":0,
						"NORMAL":1,
						"TEXCOORD_0":2
					},
					"indices":3,
					"material":0
				}
			]
		}
	],
	"textures":[
		{
			"sampler":0,
			"source":0
		},
		{
			"sampler":0,
			"source":1
		},
		{
			"sampler":0,
			"source":2
		},
		{
			"sampler":0,
			"source":0
		}
	],
	"images":[
		{
			"mimeType":"image/jpeg",
			"name":"BluePlastic_diffuse",
			"uri":"textures/BluePlastic_diffuse.jpg"
		},
		{
			"mimeType":"image/png",
			"name":"BluePlastic_specularGlossiness",
			"uri":"textures/BluePlastic_specularGlossiness.png"
		},
		{
			"mimeType":"image/png",
			"name":"BluePlastic_occlusion-BluePlastic_specularGlossiness.png",
			"uri":"textures/BluePlastic_occlusion-BluePlastic_specularGlossiness.png.png"
		}
	],
	"accessors":[
		{
			"bufferView":0,
			"componentType":5126,
			"count":82,
			"max":[
				367.4183044433594,
				49.38412094116211,
				63.12602996826172
			],
			"min":[
				-379.3572692871094,
				39.08142852783203,
				-62.874046325683594
			],
			"type":"VEC3"
		},
		{
			"bufferView":1,
			"componentType":5126,
			"count":82,
			"type":"VEC3"
		},
		{
			"bufferView":2,
			"componentType":5126,
			"count":82,
			"type":"VEC2"
		},
		{
			"bufferView":3,
			"componentType":5123,
			"count":204,
			"type":"SCALAR"
		}
	],
	"bufferViews":[
		{
			"buffer":0,
			"byteLength":984,
			"byteOffset":0,
			"target":34962
		},
		{
			"buffer":0,
			"byteLength":984,
			"byteOffset":984,
			"target":34962
		},
		{
			"buffer":0,
			"byteLength":656,
			"byteOffset":1968,
			"target":34962
		},
		{
			"buffer":0,
			"byteLength":408,
			"byteOffset":2624,
			"target":34963
		}
	],
	"samplers":[
		{
			"magFilter":9729,
			"minFilter":9987
		}
	],
	"buffers":[
		{
			"byteLength":3032,
			"uri":"ReleaseTray.bin"
		}
	]
}
